<svg width="644" height="178" viewBox="0 0 644 178" fill="none" xmlns="http://www.w3.org/2000/svg">
<path d="M151.72 121.708V52.1328H164.442L197.142 101.133V52.1328H209.864V121.708H197.142L164.442 72.8065V121.708H151.72Z" fill="white"/>
<path d="M242.038 122.9C237.068 122.9 232.662 121.84 228.819 119.72C224.976 117.599 221.961 114.618 219.774 110.774C217.587 106.931 216.494 102.492 216.494 97.4558C216.494 92.3537 217.554 87.8147 219.675 83.839C221.861 79.8633 224.843 76.7822 228.62 74.5955C232.463 72.3426 236.969 71.2162 242.137 71.2162C246.975 71.2162 251.248 72.2764 254.959 74.3968C258.67 76.5171 261.552 79.4326 263.606 83.1433C265.727 86.7877 266.787 90.8628 266.787 95.3686C266.787 96.0975 266.754 96.8595 266.687 97.6546C266.687 98.4498 266.654 99.278 266.588 100.139H229.117C229.382 103.983 230.707 106.998 233.093 109.184C235.544 111.371 238.493 112.464 241.939 112.464C244.523 112.464 246.676 111.901 248.399 110.774C250.188 109.582 251.513 108.058 252.375 106.202H265.296C264.368 109.317 262.811 112.166 260.624 114.75C258.504 117.268 255.854 119.256 252.673 120.714C249.559 122.171 246.014 122.9 242.038 122.9ZM242.137 81.553C239.023 81.553 236.273 82.4476 233.888 84.2366C231.502 85.9594 229.978 88.6099 229.316 92.188H253.866C253.667 88.9412 252.474 86.357 250.288 84.4354C248.101 82.5138 245.384 81.553 242.137 81.553Z" fill="white"/>
<path d="M264.449 121.708L282.339 97.0583L264.449 72.4089H278.066L290.589 89.902L303.013 72.4089H316.729L298.739 97.0583L316.729 121.708H303.013L290.589 104.215L278.066 121.708H264.449Z" fill="white"/>
<path d="M341.831 121.708C336.662 121.708 332.521 120.449 329.406 117.931C326.292 115.413 324.735 110.94 324.735 104.513V83.0439H316.287V72.4089H324.735L326.226 59.1897H337.457V72.4089H350.776V83.0439H337.457V104.612C337.457 106.998 337.954 108.654 338.948 109.582C340.008 110.443 341.797 110.874 344.315 110.874H350.478V121.708H341.831Z" fill="white"/>
<path d="M356.729 121.708V72.4089H367.961L369.054 79.0682C370.644 76.6828 372.732 74.7943 375.316 73.4028C377.966 71.9451 381.014 71.2162 384.46 71.2162C392.08 71.2162 397.48 74.1648 400.661 80.0621C402.45 77.3454 404.835 75.1919 407.817 73.6016C410.865 72.0113 414.178 71.2162 417.756 71.2162C424.184 71.2162 429.12 73.1378 432.566 76.981C436.011 80.8241 437.734 86.4564 437.734 93.8777V121.708H425.012V95.0704C425.012 90.8297 424.184 87.5828 422.527 85.3299C420.937 83.077 418.452 81.9506 415.073 81.9506C411.627 81.9506 408.844 83.2096 406.724 85.7275C404.67 88.2454 403.643 91.7573 403.643 96.2631V121.708H390.92V95.0704C390.92 90.8297 390.092 87.5828 388.436 85.3299C386.779 83.077 384.228 81.9506 380.782 81.9506C377.403 81.9506 374.653 83.2096 372.533 85.7275C370.479 88.2454 369.452 91.7573 369.452 96.2631V121.708H356.729Z" fill="white"/>
<path d="M468.499 122.9C463.728 122.9 459.421 121.807 455.578 119.62C451.801 117.434 448.786 114.419 446.533 110.576C444.346 106.666 443.253 102.16 443.253 97.0583C443.253 91.9561 444.379 87.4834 446.632 83.6403C448.885 79.7308 451.9 76.6828 455.677 74.4961C459.52 72.3095 463.827 71.2162 468.598 71.2162C473.303 71.2162 477.543 72.3095 481.32 74.4961C485.163 76.6828 488.178 79.7308 490.365 83.6403C492.618 87.4834 493.744 91.9561 493.744 97.0583C493.744 102.16 492.618 106.666 490.365 110.576C488.178 114.419 485.163 117.434 481.32 119.62C477.477 121.807 473.203 122.9 468.499 122.9ZM468.499 111.868C471.812 111.868 474.694 110.642 477.146 108.19C479.597 105.672 480.823 101.962 480.823 97.0583C480.823 92.1549 479.597 88.4774 477.146 86.0257C474.694 83.5077 471.845 82.2488 468.598 82.2488C465.219 82.2488 462.303 83.5077 459.851 86.0257C457.466 88.4774 456.273 92.1549 456.273 97.0583C456.273 101.962 457.466 105.672 459.851 108.19C462.303 110.642 465.186 111.868 468.499 111.868Z" fill="white"/>
<path d="M511.042 121.708L492.952 72.4089H506.271L518.794 109.681L531.318 72.4089H544.636L526.448 121.708H511.042Z" fill="white"/>
<path d="M569.218 122.9C564.249 122.9 559.842 121.84 555.999 119.72C552.156 117.599 549.141 114.618 546.954 110.774C544.768 106.931 543.674 102.492 543.674 97.4558C543.674 92.3537 544.735 87.8147 546.855 83.839C549.042 79.8633 552.023 76.7822 555.8 74.5955C559.643 72.3426 564.149 71.2162 569.318 71.2162C574.155 71.2162 578.429 72.2764 582.139 74.3968C585.85 76.5171 588.732 79.4326 590.786 83.1433C592.907 86.7877 593.967 90.8628 593.967 95.3686C593.967 96.0975 593.934 96.8595 593.868 97.6546C593.868 98.4498 593.834 99.278 593.768 100.139H556.297C556.562 103.983 557.888 106.998 560.273 109.184C562.725 111.371 565.673 112.464 569.119 112.464C571.703 112.464 573.857 111.901 575.579 110.774C577.368 109.582 578.694 108.058 579.555 106.202H592.476C591.548 109.317 589.991 112.166 587.805 114.75C585.684 117.268 583.034 119.256 579.853 120.714C576.739 122.171 573.194 122.9 569.218 122.9ZM569.318 81.553C566.203 81.553 563.453 82.4476 561.068 84.2366C558.683 85.9594 557.159 88.6099 556.496 92.188H581.046C580.847 88.9412 579.654 86.357 577.468 84.4354C575.281 82.5138 572.564 81.553 569.318 81.553Z" fill="white"/>
<path d="M88.9863 50.7803V82.2325C88.9863 85.8223 86.0762 88.7325 82.4863 88.7325L51.0341 88.7325L51.0341 75.7325H66.7764L50.2363 59.1924L59.4287 50L75.9863 66.5576L75.9863 50.7803L88.9863 50.7803Z" fill="#90D8F6"/>
<path d="M127.383 89.1782H95.9307C92.3408 89.1782 89.4307 92.0884 89.4307 95.6782V127.13L102.431 127.13L102.431 111.387L118.972 127.928L128.164 118.736L111.607 102.178H127.383V89.1782Z" fill="#90D8F6"/>
</svg>
