<svg width="410" height="185" viewBox="0 0 410 185" fill="none" xmlns="http://www.w3.org/2000/svg">
<path d="M224.245 114V64.0571H233.295V114H224.245Z" fill="white"/>
<path d="M147.646 65.4387L166.78 114H174.24L193.582 65.4387H183.566L170.623 99.5336L157.8 65.4387H147.646Z" fill="white"/>
<path fill-rule="evenodd" clip-rule="evenodd" d="M194.933 112.411C197.65 113.931 200.69 114.691 204.052 114.691C207.413 114.691 210.43 113.931 213.101 112.411C215.818 110.846 217.959 108.75 219.525 106.125C221.091 103.454 221.874 100.484 221.874 97.2143C221.874 93.9447 221.091 91.0204 219.525 88.4415C217.959 85.8165 215.818 83.7442 213.101 82.2245C210.43 80.6588 207.39 79.8759 203.983 79.8759C200.667 79.8759 197.65 80.6588 194.933 82.2245C192.216 83.7442 190.075 85.8165 188.509 88.4415C186.943 91.0204 186.161 93.9447 186.161 97.2143C186.161 100.484 186.943 103.454 188.509 106.125C190.121 108.75 192.262 110.846 194.933 112.411ZM208.473 105.158C207.183 105.895 205.686 106.263 203.983 106.263C202.325 106.263 200.851 105.895 199.562 105.158C198.272 104.375 197.259 103.316 196.522 101.981C195.785 100.599 195.417 99.0334 195.417 97.2834C195.417 95.5334 195.785 93.9907 196.522 92.6552C197.259 91.3197 198.272 90.2835 199.562 89.5467C200.851 88.7638 202.325 88.3724 203.983 88.3724C205.686 88.3724 207.183 88.7638 208.473 89.5467C209.762 90.2835 210.775 91.3197 211.512 92.6552C212.249 93.9907 212.617 95.5334 212.617 97.2834C212.617 99.0334 212.249 100.599 211.512 101.981C210.821 103.316 209.808 104.375 208.473 105.158Z" fill="white"/>
<path d="M244.214 112.826C246.516 114.069 249.141 114.691 252.089 114.691C255.036 114.691 257.638 114.092 259.894 112.895C262.197 111.652 263.97 109.925 265.213 107.714C266.503 105.504 267.147 102.925 267.147 99.9774V80.6357H258.098V99.7702C258.098 101.843 257.569 103.454 256.509 104.606C255.45 105.757 253.977 106.333 252.089 106.333C250.845 106.333 249.763 106.079 248.842 105.573C247.921 105.066 247.23 104.329 246.77 103.362C246.309 102.349 246.079 101.152 246.079 99.7702V80.6357H236.961V99.9774C236.961 102.879 237.605 105.435 238.895 107.645C240.184 109.855 241.957 111.582 244.214 112.826Z" fill="white"/>
<path d="M270.9 114V80.6357H279.949V83.5305C280.758 82.7402 281.679 82.0746 282.712 81.5337C284.646 80.4745 286.834 79.945 289.274 79.945C291.577 79.945 293.672 80.4745 295.56 81.5337C297.143 82.3828 298.45 83.5391 299.483 85.0026C300.599 83.5782 301.962 82.445 303.573 81.6028C305.6 80.4976 307.856 79.945 310.343 79.945C312.83 79.945 315.063 80.4745 317.043 81.5337C319.024 82.5469 320.589 84.0205 321.741 85.9547C322.892 87.8889 323.468 90.1914 323.468 92.8624V114H314.419V94.3131C314.419 92.3789 313.797 90.8822 312.553 89.823C311.356 88.7178 309.859 88.1652 308.063 88.1652C306.912 88.1652 305.83 88.4185 304.817 88.925C303.85 89.3855 303.09 90.0763 302.537 90.9973C301.985 91.9184 301.708 93.0236 301.708 94.3131V114H292.659V94.3131C292.659 92.3789 292.037 90.8822 290.794 89.823C289.597 88.7178 288.1 88.1652 286.304 88.1652C285.107 88.1652 284.024 88.4185 283.057 88.925C282.09 89.3855 281.33 90.0763 280.778 90.9973C280.225 91.9184 279.949 93.0236 279.949 94.3131V114H270.9Z" fill="white"/>
<path fill-rule="evenodd" clip-rule="evenodd" d="M333.98 112.48C336.697 113.954 339.806 114.691 343.306 114.691C346.023 114.691 348.533 114.207 350.835 113.24C353.184 112.273 355.164 110.846 356.776 108.957L351.457 103.639C350.444 104.79 349.247 105.665 347.865 106.263C346.483 106.816 344.941 107.092 343.237 107.092C341.349 107.092 339.691 106.701 338.263 105.918C336.836 105.089 335.73 103.938 334.947 102.464C334.653 101.857 334.417 101.209 334.241 100.521L358.641 100.461C358.825 99.6781 358.94 98.9873 358.986 98.3886C359.079 97.7439 359.125 97.1222 359.125 96.5235C359.125 93.346 358.411 90.5138 356.983 88.027C355.602 85.4942 353.667 83.514 351.181 82.0864C348.74 80.6127 345.908 79.8759 342.684 79.8759C339.414 79.8759 336.444 80.6588 333.773 82.2245C331.102 83.7442 328.984 85.8165 327.418 88.4415C325.898 91.0204 325.138 93.9677 325.138 97.2834C325.138 100.645 325.921 103.639 327.487 106.263C329.099 108.888 331.263 110.961 333.98 112.48ZM334.249 93.7499C334.41 93.1391 334.62 92.567 334.878 92.0335C335.615 90.5599 336.651 89.4316 337.987 88.6487C339.322 87.8198 340.888 87.4053 342.684 87.4053C344.388 87.4053 345.816 87.7737 346.967 88.5106C348.164 89.2013 349.062 90.2145 349.661 91.55C349.971 92.1929 350.218 92.9106 350.4 93.703L334.249 93.7499Z" fill="white"/>
<path fill-rule="evenodd" clip-rule="evenodd" d="M92.0307 134.061C115.244 134.061 134.061 115.244 134.061 92.0307C134.061 68.8178 115.244 50 92.0307 50C68.8178 50 50 68.8178 50 92.0307C50 115.244 68.8178 134.061 92.0307 134.061ZM109.438 66.3047C109.937 66.7265 110.224 67.3467 110.224 68L110.223 76.4443L110.224 77L110.223 77.0664V105.333C110.223 110.243 106.243 114.222 101.334 114.222C96.4248 114.222 92.4453 110.243 92.4453 105.333C92.4453 100.424 96.4248 96.4443 101.334 96.4443C102.953 96.4443 104.471 96.8774 105.778 97.6338V79.623L83.5557 83.3276V109.778C83.5557 114.687 79.5762 118.666 74.667 118.666C69.7578 118.666 65.7783 114.687 65.7783 109.778C65.7783 104.869 69.7578 100.889 74.667 100.889C76.2861 100.889 77.8047 101.322 79.1113 102.078L79.1123 81.4443L79.1113 80.8887L79.1123 80.8223V72.4443C79.1123 71.3584 79.8975 70.4311 80.9697 70.2524L107.636 65.8081C108.28 65.7007 108.939 65.8823 109.438 66.3047Z" fill="white"/>
</svg>
